<svg id="dark_mode" enable-background="new 0 0 512 512" height="512" viewBox="0 0 512.004 512.004" width="512" xmlns="http://www.w3.org/2000/svg">
	<g>
		<path d="m436.897 75.103c-48.431-48.432-112.675-75.103-180.899-75.103-68.381 0-132.667 26.629-181.019 74.98-48.351 48.353-74.979 112.64-74.979 181.02 0 66.065 25.24 128.678 70.102 176h-22.102c-8.837 0-16 7.164-16 16s7.163 16 16 16h64c8.837 0 16-7.164 16-16v-64c0-8.836-7.163-16-16-16s-16 7.164-16 16v28.765c-40.918-41.72-64-97.667-64-156.765 0-123.513 100.485-223.999 223.998-224 59.676 0 115.885 23.343 158.271 65.73 42.388 42.387 65.731 98.596 65.731 158.272-.001 123.513-100.487 223.998-224 223.998-8.837 0-16 7.164-16 16s7.163 16 16 16c68.381 0 132.668-26.628 181.02-74.979s74.979-112.639 74.98-181.019c.001-68.224-26.672-132.468-75.103-180.899z" />
		<path d="m320.229 172.144c-26.379-31.27-52.372-54.988-53.466-55.982-6.104-5.55-15.424-5.55-21.527 0-1.094.994-27.087 24.712-53.466 55.982-37.006 43.868-55.77 80.155-55.77 107.856 0 66.168 53.832 120 120 120s120-53.832 120-120c0-27.701-18.764-63.988-55.771-107.856zm-69.353 31.591c-.653.611-27.264 25.649-39.229 52.103-2.674 5.911-8.496 9.409-14.588 9.41-2.205 0-4.444-.458-6.585-1.426-8.051-3.642-11.625-13.121-7.983-21.172 14.757-32.622 45.339-61.184 46.634-62.384 6.481-6.007 16.604-5.622 22.611.858 6.005 6.48 5.621 16.604-.86 22.611z" />
	</g>
</svg>
