<svg id="Capa_1" enable-background="new 0 0 512 512" viewBox="0 0 512 512" xmlns="http://www.w3.org/2000/svg">
	<g>
		<g id="Translate_2_">
			<g>
				<path d="m247.46 490.76 52.441-114.624-78.223-234.39c-1.538-4.57-.762-9.595 2.051-13.521 2.827-3.911 7.354-6.226 12.173-6.226h231.098c24.814 0 45 20.186 45 45v300c0 24.814-20.186 45-45 45h-205.902z" fill="#fff5f5" />
			</g>
		</g>
		<path d="m512 467v-300c0-24.814-20.186-45-45-45h-91v390h91c24.814 0 45-20.186 45-45z" fill="#e3e7ea" />
		<g>
			<g>
				<g>
					<g>
						<path d="m261.098 512c-.264 0-.542 0-.806-.015-6.152-.337-11.484-4.409-13.433-10.254l-39.902-120c-1.523-4.57-.747-9.595 2.08-13.506 2.813-3.911 7.339-6.226 12.158-6.226h94.805c5.112 0 9.858 2.593 12.627 6.899 2.754 4.292 3.135 9.697 1.011 14.341l-54.902 120c-2.447 5.363-7.794 8.761-13.638 8.761z" fill="#acd1fc" />
					</g>
				</g>
			</g>
		</g>
		<g>
			<g>
				<g>
					<g>
						<g>
							<path d="m329.638 383.24-54.902 120c-2.446 5.361-7.793 8.76-13.638 8.76-.264 0-.542 0-.806-.015-6.152-.337-11.484-4.409-13.433-10.254l-39.902-120c-1.523-4.57-.747-9.595 2.08-13.506 2.813-3.911 7.339-6.226 12.158-6.226h94.805z" fill="#324492" />
						</g>
					</g>
				</g>
			</g>
		</g>
		<g>
			<path d="m316 392h-271c-24.814 0-45-20.186-45-45v-302c0-24.814 20.186-45 45-45h151c6.46 0 12.202 4.131 14.238 10.269l119.985 361.985c1.538 4.57.762 9.595-2.051 13.521-2.826 3.911-7.353 6.225-12.172 6.225z" fill="#4086f4" />
		</g>
		<path d="m210.238 10.269c-2.036-6.138-7.778-10.269-14.238-10.269h-60v392h180c4.819 0 9.346-2.314 12.173-6.226 2.813-3.926 3.589-8.95 2.051-13.521z" fill="#4175df" />
		<path d="m196 182h-45c-8.291 0-15 6.709-15 15s6.709 15 15 15h27.237c-6.213 17.422-22.707 30-42.237 30-24.814 0-45-20.186-45-45s20.186-45 45-45c12.026 0 23.32 4.673 31.802 13.184 5.859 5.859 15.366 5.845 21.226.015 5.859-5.859 5.859-15.352.015-21.226-14.166-14.165-32.989-21.973-53.043-21.973-41.353 0-75 33.647-75 75s33.647 75 75 75 75-33.647 75-75c0-8.291-6.709-15-15-15z" fill="#fff5f5" />
		<g>
			<g>
				<g>
					<path d="m196 182h-45c-8.291 0-15 6.709-15 15s6.709 15 15 15h27.237c-6.213 17.422-22.707 30-42.237 30v30c41.353 0 75-33.647 75-75 0-8.291-6.709-15-15-15z" fill="#e3e7ea" />
				</g>
				<g>
					<path d="m167.802 165.184c5.859 5.859 15.366 5.845 21.226.015 5.859-5.859 5.859-15.352.015-21.226-14.166-14.165-32.989-21.973-53.043-21.973v30c12.026 0 23.32 4.673 31.802 13.184z" fill="#e3e7ea" />
				</g>
			</g>
		</g>
		<path d="m436 242h-45v-15c0-8.291-6.709-15-15-15s-15 6.709-15 15v15h-45c-8.291 0-15 6.709-15 15s6.709 15 15 15h86.918c-4.746 14.193-14.848 30.857-26.779 47.06-2.54-3.433-5.056-6.934-7.478-10.497-4.629-6.855-13.96-8.657-20.845-3.97-6.841 4.658-8.628 13.989-3.97 20.845 4.215 6.2 8.632 12.131 13.037 17.849-7.496 8.694-14.901 16.635-21.387 23.005-5.918 5.815-6.006 15.308-.205 21.211 2.945 3.003 6.827 4.497 10.709 4.497 3.794 0 7.588-1.436 10.503-4.292 2.336-2.291 10.091-10.177 19.651-20.94 10.622 12.145 18.622 20.219 19.241 20.837 2.93 2.93 6.768 4.395 10.605 4.395s7.676-1.465 10.605-4.395c5.859-5.859 5.859-15.352 0-21.211-.152-.161-9.366-9.47-21.048-23.088 16.631-21.546 32.772-47.444 38.132-71.307h2.311c8.291 0 15-6.709 15-15s-6.709-14.999-15-14.999z" fill="#4254b6" />
		<path d="m402.918 272c-4.746 14.193-14.848 30.857-26.779 47.06-.048-.064-.092-.132-.139-.196v48.074c.055-.06.099-.11.154-.17 10.622 12.145 18.622 20.219 19.241 20.837 2.93 2.93 6.768 4.395 10.605 4.395s7.676-1.465 10.605-4.395c5.859-5.859 5.859-15.352 0-21.211-.152-.161-9.366-9.47-21.048-23.088 16.631-21.546 32.772-47.444 38.132-71.307h2.311c8.291 0 15-6.709 15-15s-6.709-15-15-15h-45v-15c0-8.291-6.709-15-15-15v60h26.918z" fill="#324492" />
	</g>
</svg>
